<svg xmlns="http://www.w3.org/2000/svg" xmlns:xlink="http://www.w3.org/1999/xlink" width="375" zoomAndPan="magnify" viewBox="0 0 375 374.999991" height="374.999991" preserveAspectRatio="xMidYMid meet" version="1.0"><defs><g/><clipPath id="id1"><path d="M 117.339844 158 L 129 158 L 129 177 L 117.339844 177 Z M 117.339844 158 " clip-rule="nonzero"/></clipPath><clipPath id="id2"><path d="M 227 150 L 257.589844 150 L 257.589844 179 L 227 179 Z M 227 150 " clip-rule="nonzero"/></clipPath><clipPath id="id3"><path d="M 163 96.695312 L 211 96.695312 L 211 200.945312 L 163 200.945312 Z M 163 96.695312 " clip-rule="nonzero"/></clipPath><clipPath id="id4"><path d="M 97 142 L 120 142 L 120 170 L 97 170 Z M 97 142 " clip-rule="nonzero"/></clipPath><clipPath id="id5"><path d="M 95.316406 144.925781 L 117.363281 140.425781 L 124.414062 174.960938 L 102.371094 179.464844 Z M 95.316406 144.925781 " clip-rule="nonzero"/></clipPath><clipPath id="id6"><path d="M 95.316406 144.925781 L 117.363281 140.425781 L 124.414062 174.960938 L 102.371094 179.464844 Z M 95.316406 144.925781 " clip-rule="nonzero"/></clipPath><clipPath id="id7"><path d="M 107 171 L 115 171 L 115 178 L 107 178 Z M 107 171 " clip-rule="nonzero"/></clipPath><clipPath id="id8"><path d="M 95.316406 144.925781 L 117.363281 140.425781 L 124.414062 174.960938 L 102.371094 179.464844 Z M 95.316406 144.925781 " clip-rule="nonzero"/></clipPath><clipPath id="id9"><path d="M 95.316406 144.925781 L 117.363281 140.425781 L 124.414062 174.960938 L 102.371094 179.464844 Z M 95.316406 144.925781 " clip-rule="nonzero"/></clipPath><clipPath id="id10"><path d="M 259.160156 140.429688 L 287.660156 140.429688 L 287.660156 189.179688 L 259.160156 189.179688 Z M 259.160156 140.429688 " clip-rule="nonzero"/></clipPath></defs><g clip-path="url(#id1)"><path fill="rgb(92.549133%, 11.369324%, 15.289307%)" d="M 127.425781 158.664062 L 128.597656 160.4375 C 124.132812 165.089844 120.332031 170.378906 117.339844 176.15625 C 119.847656 169.847656 123.261719 163.972656 127.425781 158.664062 " fill-opacity="1" fill-rule="nonzero"/></g><path fill="rgb(92.549133%, 11.369324%, 15.289307%)" d="M 137.929688 152.335938 C 135.238281 154.265625 132.703125 156.394531 130.332031 158.695312 L 129.019531 156.707031 C 131.1875 154.140625 133.527344 151.71875 136.039062 149.472656 L 137.929688 152.335938 " fill-opacity="1" fill-rule="nonzero"/><path fill="rgb(92.549133%, 11.369324%, 15.289307%)" d="M 149.414062 145.683594 C 146.089844 147.191406 142.914062 148.957031 139.910156 150.960938 L 137.871094 147.871094 C 140.796875 145.414062 143.921875 143.171875 147.222656 141.167969 L 149.414062 145.683594 " fill-opacity="1" fill-rule="nonzero"/><path fill="rgb(92.549133%, 11.369324%, 15.289307%)" d="M 165.359375 140.738281 C 160.585938 141.582031 155.992188 142.933594 151.628906 144.726562 L 149.316406 139.949219 C 153.957031 137.332031 158.921875 135.179688 164.144531 133.566406 L 165.359375 140.738281 " fill-opacity="1" fill-rule="nonzero"/><path fill="rgb(92.549133%, 11.369324%, 15.289307%)" d="M 187.261719 130.125 L 186.789062 140.382812 C 183.648438 139.933594 180.445312 139.699219 177.183594 139.699219 C 173.980469 139.699219 170.828125 139.921875 167.742188 140.363281 L 166.476562 132.886719 C 173.019531 131.089844 179.933594 130.125 187.082031 130.125 L 187.261719 130.125 " fill-opacity="1" fill-rule="nonzero"/><path fill="rgb(92.549133%, 11.369324%, 15.289307%)" d="M 213.679688 134.804688 L 207.835938 147.074219 C 202.050781 144.105469 195.785156 141.953125 189.179688 140.773438 L 189.671875 130.167969 C 198.101562 130.445312 206.179688 132.0625 213.679688 134.804688 " fill-opacity="1" fill-rule="nonzero"/><path fill="rgb(92.549133%, 11.369324%, 15.289307%)" d="M 237.039062 148.511719 L 225.453125 160.109375 C 220.914062 155.433594 215.699219 151.417969 209.964844 148.214844 L 215.9375 135.671875 C 223.734375 138.796875 230.855469 143.167969 237.039062 148.511719 " fill-opacity="1" fill-rule="nonzero"/><g clip-path="url(#id2)"><path fill="rgb(92.549133%, 11.369324%, 15.289307%)" d="M 257.589844 178.160156 L 238.027344 178.160156 C 235.183594 172.195312 231.496094 166.710938 227.109375 161.871094 L 238.84375 150.121094 C 247.214844 157.84375 253.703125 167.421875 257.589844 178.160156 " fill-opacity="1" fill-rule="nonzero"/></g><path fill="rgb(92.549133%, 11.369324%, 15.289307%)" d="M 183.363281 147.101562 C 183.363281 147.101562 183.066406 147.03125 182.503906 146.898438 C 182.226562 146.835938 181.878906 146.753906 181.472656 146.65625 C 181.082031 146.582031 180.632812 146.496094 180.128906 146.398438 C 179.632812 146.292969 179.0625 146.210938 178.441406 146.117188 C 177.820312 146.011719 177.144531 145.929688 176.425781 145.855469 C 174.980469 145.679688 173.339844 145.589844 171.546875 145.535156 C 169.75 145.53125 167.800781 145.550781 165.746094 145.742188 C 163.691406 145.933594 161.523438 146.199219 159.3125 146.65625 C 157.101562 147.109375 154.828125 147.675781 152.5625 148.402344 C 151.996094 148.582031 151.433594 148.789062 150.867188 148.980469 C 150.59375 149.078125 150.277344 149.175781 150.035156 149.273438 L 149.183594 149.609375 C 148.613281 149.832031 148.042969 150.054688 147.472656 150.28125 L 145.824219 151.015625 C 144.71875 151.480469 143.648438 152.058594 142.570312 152.601562 C 142.023438 152.859375 141.511719 153.183594 140.984375 153.472656 C 140.464844 153.773438 139.933594 154.054688 139.425781 154.371094 C 138.921875 154.691406 138.417969 155.007812 137.917969 155.324219 L 137.171875 155.800781 L 136.449219 156.308594 C 135.96875 156.644531 135.492188 156.980469 135.019531 157.316406 C 134.554688 157.660156 134.105469 158.019531 133.65625 158.367188 C 131.84375 159.757812 130.21875 161.257812 128.710938 162.714844 C 127.992188 163.472656 127.269531 164.199219 126.613281 164.933594 C 125.980469 165.6875 125.324219 166.386719 124.769531 167.117188 C 123.625 168.546875 122.660156 169.925781 121.84375 171.175781 C 121.449219 171.8125 121.082031 172.40625 120.742188 172.957031 C 120.421875 173.515625 120.148438 174.042969 119.890625 174.511719 C 119.355469 175.445312 119.039062 176.230469 118.78125 176.746094 C 118.535156 177.265625 118.402344 177.542969 118.402344 177.542969 C 118.402344 177.542969 118.523438 177.261719 118.746094 176.730469 C 118.980469 176.203125 119.265625 175.40625 119.761719 174.449219 C 120 173.964844 120.253906 173.425781 120.550781 172.847656 C 120.867188 172.28125 121.210938 171.667969 121.578125 171.011719 C 122.34375 169.722656 123.257812 168.289062 124.351562 166.796875 C 124.882812 166.035156 125.511719 165.300781 126.121094 164.507812 C 126.753906 163.734375 127.449219 162.972656 128.148438 162.167969 C 129.613281 160.628906 131.195312 159.035156 132.976562 157.539062 C 133.421875 157.167969 133.863281 156.78125 134.324219 156.40625 C 134.789062 156.046875 135.261719 155.683594 135.734375 155.320312 L 136.449219 154.773438 L 137.191406 154.25 C 137.691406 153.90625 138.191406 153.558594 138.691406 153.210938 C 139.195312 152.867188 139.726562 152.554688 140.246094 152.222656 C 140.769531 151.902344 141.28125 151.550781 141.828125 151.261719 C 142.910156 150.660156 143.976562 150.023438 145.109375 149.484375 L 146.792969 148.648438 C 147.355469 148.398438 147.914062 148.152344 148.472656 147.902344 L 149.3125 147.53125 C 149.628906 147.386719 149.894531 147.296875 150.1875 147.175781 C 150.765625 146.953125 151.335938 146.71875 151.910156 146.507812 C 154.214844 145.65625 156.539062 144.96875 158.8125 144.402344 C 161.089844 143.828125 163.332031 143.453125 165.46875 143.164062 C 167.605469 142.871094 169.648438 142.757812 171.53125 142.683594 C 173.421875 142.660156 175.15625 142.679688 176.691406 142.800781 C 177.457031 142.847656 178.175781 142.902344 178.839844 142.984375 C 179.5 143.054688 180.109375 143.117188 180.667969 143.210938 C 181.226562 143.292969 181.722656 143.367188 182.152344 143.433594 C 182.5625 143.511719 182.910156 143.578125 183.195312 143.632812 C 183.757812 143.738281 184.0625 143.796875 184.0625 143.796875 L 183.363281 147.101562 " fill-opacity="1" fill-rule="nonzero"/><g clip-path="url(#id3)"><path fill="rgb(92.549133%, 11.369324%, 15.289307%)" d="M 179.203125 183.335938 L 210.570312 96.699219 L 172.386719 181.335938 C 167.363281 181.765625 163.421875 185.976562 163.421875 191.117188 C 163.421875 196.542969 167.8125 200.941406 173.234375 200.941406 C 178.652344 200.941406 183.046875 196.542969 183.046875 191.117188 C 183.046875 187.945312 181.535156 185.128906 179.203125 183.335938 " fill-opacity="1" fill-rule="nonzero"/></g><path fill="rgb(92.549133%, 11.369324%, 15.289307%)" d="M 223.328125 181.863281 L 221.8125 179.320312 L 229.261719 174.867188 L 230.777344 177.410156 L 223.328125 181.863281 " fill-opacity="1" fill-rule="nonzero"/><path fill="rgb(92.549133%, 11.369324%, 15.289307%)" d="M 215.789062 171.28125 L 213.777344 169.109375 L 220.140625 163.199219 L 222.152344 165.371094 L 215.789062 171.28125 " fill-opacity="1" fill-rule="nonzero"/><path fill="rgb(92.549133%, 11.369324%, 15.289307%)" d="M 206.21875 162.496094 L 203.796875 160.792969 L 208.792969 153.6875 L 211.214844 155.394531 L 206.21875 162.496094 " fill-opacity="1" fill-rule="nonzero"/><path fill="rgb(92.549133%, 11.369324%, 15.289307%)" d="M 195.03125 155.898438 L 192.3125 154.734375 L 195.722656 146.746094 L 198.441406 147.910156 L 195.03125 155.898438 " fill-opacity="1" fill-rule="nonzero"/><g clip-path="url(#id4)"><g clip-path="url(#id5)"><g clip-path="url(#id6)"><path fill="rgb(92.549133%, 11.369324%, 15.289307%)" d="M 110.109375 169.160156 C 108.367188 169.515625 106.671875 168.398438 106.316406 166.664062 L 105.460938 162.480469 C 105.109375 160.746094 106.230469 159.050781 107.96875 158.695312 C 108.601562 158.558594 114.054688 156.363281 113.199219 152.175781 C 112.773438 150.082031 110.246094 148.417969 107.097656 149.0625 C 104.535156 149.585938 103.324219 152.011719 103.539062 153.058594 C 103.894531 154.792969 102.769531 156.488281 101.03125 156.84375 C 99.292969 157.199219 97.59375 156.082031 97.242188 154.347656 C 96.199219 149.242188 100.125 143.945312 105.8125 142.78125 C 114.210938 141.066406 118.640625 146.683594 119.710938 151.9375 C 120.597656 156.273438 118.886719 160.078125 114.886719 162.648438 C 114.015625 163.207031 113.132812 163.644531 112.332031 163.984375 L 112.617188 165.378906 C 112.96875 167.113281 111.847656 168.804688 110.109375 169.160156 Z M 110.109375 169.160156 " fill-opacity="1" fill-rule="nonzero"/></g></g></g><g clip-path="url(#id7)"><g clip-path="url(#id8)"><g clip-path="url(#id9)"><path fill="rgb(92.549133%, 11.369324%, 15.289307%)" d="M 114.324219 173.75 C 114.410156 174.167969 114.414062 174.585938 114.332031 175 C 114.25 175.417969 114.09375 175.804688 113.855469 176.160156 C 113.621094 176.515625 113.328125 176.8125 112.972656 177.050781 C 112.621094 177.289062 112.234375 177.449219 111.816406 177.535156 C 111.402344 177.621094 110.980469 177.621094 110.5625 177.542969 C 110.144531 177.460938 109.757812 177.304688 109.402344 177.070312 C 109.046875 176.835938 108.75 176.542969 108.511719 176.191406 C 108.273438 175.839844 108.113281 175.453125 108.027344 175.039062 C 107.941406 174.621094 107.941406 174.203125 108.023438 173.789062 C 108.101562 173.371094 108.261719 172.984375 108.496094 172.628906 C 108.730469 172.273438 109.027344 171.976562 109.378906 171.738281 C 109.734375 171.5 110.117188 171.339844 110.535156 171.253906 C 110.953125 171.167969 111.371094 171.167969 111.789062 171.246094 C 112.207031 171.328125 112.59375 171.484375 112.949219 171.71875 C 113.304688 171.953125 113.601562 172.246094 113.839844 172.597656 C 114.078125 172.949219 114.242188 173.335938 114.324219 173.75 Z M 114.324219 173.75 " fill-opacity="1" fill-rule="nonzero"/></g></g></g><g clip-path="url(#id10)"><path fill="rgb(92.549133%, 11.369324%, 15.289307%)" d="M 260.601562 165.148438 C 259.875 162.402344 259.335938 160.058594 260.089844 157.21875 C 260.789062 154.585938 262.855469 152.492188 265.195312 151.242188 C 270.632812 148.339844 277.472656 150.1875 280.742188 155.445312 C 282.152344 157.707031 282.902344 160.5625 282.203125 163.199219 C 281.449219 166.035156 279.820312 167.796875 277.832031 169.808594 C 277.25 170.398438 276.667969 170.988281 276.128906 171.621094 C 275.882812 171.910156 275.613281 172.195312 275.355469 172.476562 C 275.050781 172.808594 274.75 173.136719 274.449219 173.472656 C 274.027344 173.949219 273.15625 174.910156 272.921875 175.492188 C 272.789062 175.824219 272.679688 176.167969 272.570312 176.507812 C 272.027344 178.1875 271.378906 180.21875 269.175781 179.625 L 263.234375 178.019531 C 261.03125 177.421875 261.476562 175.335938 261.839844 173.609375 C 261.914062 173.257812 261.988281 172.902344 262.039062 172.546875 C 262.121094 171.925781 261.847656 170.65625 261.714844 170.027344 C 261.621094 169.589844 261.523438 169.152344 261.425781 168.710938 C 261.339844 168.335938 261.25 167.957031 261.175781 167.578125 C 261.023438 166.757812 260.8125 165.953125 260.601562 165.148438 Z M 273.5625 148.074219 L 275.449219 140.972656 C 275.957031 141.089844 276.457031 141.226562 276.957031 141.378906 L 275.070312 148.480469 C 274.574219 148.316406 274.070312 148.183594 273.5625 148.074219 Z M 262.457031 142.109375 C 262.941406 141.902344 263.425781 141.714844 263.917969 141.546875 L 265.808594 148.664062 C 265.324219 148.851562 264.839844 149.066406 264.371094 149.3125 Z M 268.828125 140.507812 C 269.347656 140.460938 269.867188 140.4375 270.386719 140.429688 L 270.386719 147.773438 C 269.867188 147.785156 269.347656 147.828125 268.828125 147.898438 Z M 281.609375 143.460938 C 282.054688 143.730469 282.492188 144.015625 282.917969 144.316406 L 279.253906 150.71875 C 278.839844 150.394531 278.410156 150.097656 277.96875 149.824219 Z M 286.652344 147.695312 C 286.996094 148.085938 287.324219 148.496094 287.640625 148.917969 L 282.417969 154.191406 C 282.128906 153.742188 281.820312 153.3125 281.488281 152.90625 Z M 263.492188 189.023438 C 262.976562 188.875 262.578125 188.6875 262.347656 188.28125 C 262.136719 187.910156 261.753906 187.605469 261.46875 187.277344 C 261.40625 187.203125 261.398438 187.101562 261.449219 187.015625 C 261.5 186.929688 261.597656 186.894531 261.691406 186.917969 L 263.898438 187.515625 L 266.101562 188.109375 C 266.195312 188.136719 266.261719 188.21875 266.265625 188.316406 C 266.265625 188.417969 266.207031 188.503906 266.113281 188.535156 C 265.707031 188.675781 265.226562 188.746094 264.855469 188.960938 C 264.457031 189.195312 264.019531 189.15625 263.5 189.023438 C 263.496094 189.023438 263.496094 189.023438 263.492188 189.023438 Z M 260.816406 184.1875 L 268.214844 186.1875 C 268.902344 186.375 269.359375 186.925781 269.230469 187.410156 L 269.210938 187.484375 C 269.082031 187.972656 268.414062 188.21875 267.722656 188.03125 L 260.328125 186.03125 C 259.636719 185.84375 259.179688 185.292969 259.308594 184.808594 L 259.328125 184.734375 C 259.457031 184.246094 260.128906 184 260.816406 184.1875 Z M 261.441406 181.824219 L 268.839844 183.824219 C 269.527344 184.011719 269.984375 184.5625 269.855469 185.050781 L 269.835938 185.121094 C 269.707031 185.609375 269.039062 185.855469 268.351562 185.667969 L 260.953125 183.667969 C 260.265625 183.484375 259.808594 182.929688 259.9375 182.445312 L 259.957031 182.371094 C 260.085938 181.886719 260.753906 181.640625 261.441406 181.824219 Z M 262.085938 179.40625 L 269.484375 181.40625 C 270.171875 181.59375 270.628906 182.144531 270.5 182.632812 L 270.480469 182.703125 C 270.351562 183.191406 269.683594 183.4375 268.992188 183.25 L 261.59375 181.25 C 260.90625 181.066406 260.449219 180.515625 260.578125 180.027344 L 260.597656 179.953125 C 260.726562 179.46875 261.398438 179.21875 262.085938 179.40625 Z M 263.628906 175.945312 C 263.679688 175.964844 263.738281 175.980469 263.773438 175.992188 L 269.714844 177.597656 C 269.75 177.605469 269.808594 177.621094 269.859375 177.628906 C 270.132812 177.3125 270.480469 176.207031 270.589844 175.859375 C 270.71875 175.46875 270.84375 175.082031 270.996094 174.699219 C 271.367188 173.777344 272.238281 172.816406 272.902344 172.070312 C 273.207031 171.726562 273.519531 171.390625 273.832031 171.050781 C 274.074219 170.785156 274.320312 170.523438 274.554688 170.25 C 275.125 169.582031 275.742188 168.953125 276.359375 168.328125 C 278.058594 166.609375 279.554688 165.066406 280.195312 162.65625 C 280.742188 160.601562 280.074219 158.320312 278.980469 156.5625 C 276.292969 152.234375 270.644531 150.707031 266.167969 153.097656 C 264.351562 154.066406 262.644531 155.707031 262.101562 157.761719 C 261.460938 160.171875 261.992188 162.265625 262.609375 164.609375 C 262.835938 165.464844 263.058594 166.316406 263.222656 167.1875 C 263.289062 167.539062 263.371094 167.890625 263.453125 168.242188 C 263.554688 168.695312 263.65625 169.144531 263.75 169.59375 C 263.953125 170.578125 264.234375 171.847656 264.097656 172.835938 C 264.042969 173.242188 263.957031 173.640625 263.875 174.042969 C 263.800781 174.402344 263.550781 175.535156 263.628906 175.945312 Z M 263.628906 175.945312 " fill-opacity="1" fill-rule="evenodd"/></g><g fill="rgb(100%, 100%, 100%)" fill-opacity="1"><g transform="translate(76.071198, 244.049841)"><g><path d="M 15.527344 0.625 C 23.765625 0.625 30.886719 -4.164062 32.800781 -10.988281 L 25.515625 -11.820312 C 24.226562 -8.449219 20.605469 -5.953125 16.941406 -5.953125 C 11.945312 -5.953125 9.15625 -9.53125 10.074219 -14.859375 C 11.03125 -20.230469 15.066406 -23.765625 20.0625 -23.765625 C 23.726562 -23.765625 26.429688 -21.226562 26.515625 -17.816406 L 34.089844 -18.605469 C 34.464844 -25.515625 29.011719 -30.34375 20.980469 -30.34375 C 11.53125 -30.34375 3.664062 -24.101562 2.039062 -14.859375 C 0.457031 -5.660156 6.117188 0.625 15.527344 0.625 Z M 15.527344 0.625 "/></g></g></g><g fill="rgb(100%, 100%, 100%)" fill-opacity="1"><g transform="translate(110.195866, 244.049841)"><g><path d="M 8.449219 0.542969 C 11.820312 0.542969 14.320312 -0.957031 16.191406 -3.664062 L 16.566406 -3.664062 L 15.941406 0 L 23.101562 0 L 26.847656 -21.394531 L 19.6875 -21.394531 L 19.0625 -17.648438 L 18.648438 -17.648438 C 17.691406 -20.3125 15.777344 -21.9375 12.402344 -21.9375 C 6.742188 -21.9375 2.121094 -17.523438 0.914062 -10.738281 C -0.292969 -3.828125 2.707031 0.542969 8.449219 0.542969 Z M 11.988281 -5.410156 C 9.15625 -5.410156 7.535156 -7.660156 8.074219 -10.65625 C 8.617188 -13.734375 11.03125 -15.984375 13.902344 -15.984375 C 16.648438 -15.984375 18.316406 -13.734375 17.773438 -10.738281 C 17.273438 -7.660156 14.777344 -5.410156 11.988281 -5.410156 Z M 11.988281 -5.410156 "/></g></g></g><g fill="rgb(100%, 100%, 100%)" fill-opacity="1"><g transform="translate(137.162677, 244.049841)"><g><path d="M 0.0820312 0 L 7.242188 0 L 9.15625 -10.78125 C 9.699219 -13.777344 11.738281 -15.777344 14.234375 -15.777344 C 15.316406 -15.777344 16.691406 -15.441406 17.816406 -14.859375 L 18.980469 -21.269531 C 18.273438 -21.644531 17.398438 -21.8125 16.523438 -21.8125 C 14.195312 -21.8125 12.195312 -20.4375 10.863281 -18.066406 L 10.449219 -18.066406 L 10.988281 -21.394531 L 3.871094 -21.394531 Z M 0.0820312 0 "/></g></g></g><g fill="rgb(100%, 100%, 100%)" fill-opacity="1"><g transform="translate(155.015699, 244.049841)"><g/></g></g><g fill="rgb(100%, 100%, 100%)" fill-opacity="1"><g transform="translate(165.12825, 244.049841)"><g><path d="M 15.902344 0.75 C 25.933594 0.75 33.800781 -6.367188 34.757812 -16.691406 L 16.109375 -16.691406 L 15.316406 -12.113281 L 26.265625 -12.113281 C 25.308594 -8.449219 21.519531 -5.828125 17.316406 -5.828125 C 12.195312 -5.828125 9.199219 -9.613281 10.074219 -14.859375 C 10.988281 -20.144531 15.277344 -23.765625 20.1875 -23.765625 C 23.558594 -23.765625 26.222656 -21.8125 26.429688 -19.0625 L 34.089844 -20.355469 C 33.839844 -26.140625 28.597656 -30.34375 21.394531 -30.34375 C 11.738281 -30.34375 3.703125 -24.101562 2.039062 -14.859375 C 0.457031 -5.660156 6.242188 0.75 15.902344 0.75 Z M 15.902344 0.75 "/></g></g></g><g fill="rgb(100%, 100%, 100%)" fill-opacity="1"><g transform="translate(200.251681, 244.049841)"><g><path d="M 10.988281 0.542969 C 16.441406 0.542969 21.476562 -2.164062 23.226562 -6.285156 L 17.148438 -7.160156 C 16.234375 -5.496094 14.359375 -4.289062 12.238281 -4.289062 C 9.492188 -4.289062 7.910156 -6.078125 7.992188 -8.78125 L 24.351562 -8.78125 C 24.476562 -9.117188 24.640625 -10.113281 24.726562 -10.613281 C 25.972656 -17.523438 22.144531 -21.9375 15.066406 -21.9375 C 7.992188 -21.9375 2.207031 -17.566406 0.957031 -10.738281 C -0.25 -3.871094 3.871094 0.542969 10.988281 0.542969 Z M 8.574219 -12.488281 C 9.40625 -15.277344 11.488281 -17.109375 14.109375 -17.109375 C 16.691406 -17.109375 18.230469 -15.027344 17.898438 -12.488281 Z M 8.574219 -12.488281 "/></g></g></g><g fill="rgb(100%, 100%, 100%)" fill-opacity="1"><g transform="translate(225.928414, 244.049841)"><g><path d="M 10.988281 0.542969 C 16.441406 0.542969 21.476562 -2.164062 23.226562 -6.285156 L 17.148438 -7.160156 C 16.234375 -5.496094 14.359375 -4.289062 12.238281 -4.289062 C 9.492188 -4.289062 7.910156 -6.078125 7.992188 -8.78125 L 24.351562 -8.78125 C 24.476562 -9.117188 24.640625 -10.113281 24.726562 -10.613281 C 25.972656 -17.523438 22.144531 -21.9375 15.066406 -21.9375 C 7.992188 -21.9375 2.207031 -17.566406 0.957031 -10.738281 C -0.25 -3.871094 3.871094 0.542969 10.988281 0.542969 Z M 8.574219 -12.488281 C 9.40625 -15.277344 11.488281 -17.109375 14.109375 -17.109375 C 16.691406 -17.109375 18.230469 -15.027344 17.898438 -12.488281 Z M 8.574219 -12.488281 "/></g></g></g><g fill="rgb(100%, 100%, 100%)" fill-opacity="1"><g transform="translate(251.605146, 244.049841)"><g><path d="M 0.0820312 0 L 7.242188 0 L 8.742188 -8.742188 L 9.15625 -8.742188 L 13.859375 0 L 22.269531 0 L 15.691406 -11.113281 L 25.890625 -21.394531 L 17.523438 -21.394531 L 9.988281 -13.445312 L 9.613281 -13.445312 L 12.695312 -30.96875 L 5.535156 -30.96875 Z M 0.0820312 0 "/></g></g></g><g fill="rgb(100%, 100%, 100%)" fill-opacity="1"><g transform="translate(275.908579, 244.049841)"><g><path d="M 9.242188 0.707031 C 15.777344 0.707031 20.5625 -2.164062 21.394531 -6.828125 C 22.269531 -11.90625 17.523438 -12.695312 13.695312 -13.195312 C 10.824219 -13.527344 8.242188 -13.734375 8.574219 -15.691406 C 8.78125 -16.984375 10.324219 -17.855469 12.277344 -17.855469 C 14.527344 -17.855469 15.902344 -16.691406 15.609375 -14.941406 L 21.894531 -14.941406 C 22.683594 -19.3125 18.8125 -22.101562 12.988281 -22.101562 C 7.035156 -22.101562 2.664062 -19.273438 1.875 -14.984375 C 0.832031 -9.117188 6.285156 -8.824219 10.03125 -8.449219 C 12.402344 -8.160156 14.445312 -7.949219 14.109375 -5.910156 C 13.820312 -4.496094 12.113281 -3.539062 10.113281 -3.539062 C 7.492188 -3.539062 5.953125 -4.910156 6.285156 -6.867188 L 0.292969 -6.867188 C -0.542969 -2.289062 2.996094 0.707031 9.242188 0.707031 Z M 9.242188 0.707031 "/></g></g></g><g fill="rgb(92.549133%, 11.369324%, 15.289307%)" fill-opacity="1"><g transform="translate(71.834611, 272.84008)"><g><path d="M 5.558594 0.25 C 7.96875 0.25 9.890625 -1.210938 10.195312 -3.226562 L 8.640625 -3.425781 C 8.363281 -2.132812 7.085938 -1.132812 5.609375 -1.132812 C 3.621094 -1.132812 2.238281 -2.582031 2.238281 -4.664062 C 2.238281 -6.757812 3.609375 -8.191406 5.609375 -8.191406 C 7.074219 -8.191406 8.351562 -7.175781 8.625 -5.847656 L 10.179688 -6.03125 C 9.851562 -8.085938 7.929688 -9.585938 5.558594 -9.585938 C 2.660156 -9.585938 0.578125 -7.558594 0.578125 -4.664062 C 0.578125 -1.777344 2.660156 0.25 5.558594 0.25 Z M 5.558594 0.25 "/></g></g></g><g fill="rgb(92.549133%, 11.369324%, 15.289307%)" fill-opacity="1"><g transform="translate(83.745423, 272.84008)"><g><path d="M 0.199219 0 L 1.910156 0 L 2.609375 -1.9375 L 6.757812 -1.9375 L 7.453125 0 L 9.179688 0 L 5.914062 -9.324219 L 3.464844 -9.324219 Z M 2.964844 -3.175781 L 4.621094 -7.890625 L 4.742188 -7.890625 L 6.402344 -3.175781 Z M 2.964844 -3.175781 "/></g></g></g><g fill="rgb(92.549133%, 11.369324%, 15.289307%)" fill-opacity="1"><g transform="translate(94.248095, 272.84008)"><g><path d="M 0.949219 0 L 2.609375 0 L 2.609375 -3.570312 L 4.136719 -3.570312 L 7.019531 0 L 8.902344 0 L 5.769531 -3.6875 L 6.058594 -3.699219 C 7.691406 -3.832031 8.796875 -4.886719 8.796875 -6.414062 C 8.796875 -8.191406 7.414062 -9.324219 5.269531 -9.324219 L 0.949219 -9.324219 Z M 2.609375 -4.703125 L 2.609375 -8.085938 L 5.003906 -8.085938 C 6.28125 -8.085938 7.125 -7.46875 7.125 -6.402344 C 7.125 -5.359375 6.269531 -4.703125 5.003906 -4.703125 Z M 2.609375 -4.703125 "/></g></g></g><g fill="rgb(92.549133%, 11.369324%, 15.289307%)" fill-opacity="1"><g transform="translate(104.777091, 272.84008)"><g/></g></g><g fill="rgb(92.549133%, 11.369324%, 15.289307%)" fill-opacity="1"><g transform="translate(109.160278, 272.84008)"><g><path d="M 0.949219 0 L 7.847656 0 L 7.847656 -1.34375 L 2.554688 -1.34375 L 2.554688 -4.214844 L 7.335938 -4.214844 L 7.335938 -5.347656 L 2.554688 -5.347656 L 2.554688 -7.996094 L 7.71875 -7.996094 L 7.71875 -9.324219 L 0.949219 -9.324219 Z M 0.949219 0 "/></g></g></g><g fill="rgb(92.549133%, 11.369324%, 15.289307%)" fill-opacity="1"><g transform="translate(118.662773, 272.84008)"><g><path d="M 0.933594 0 L 2.503906 0 L 2.503906 -7.175781 L 2.609375 -7.175781 L 6.914062 0 L 8.757812 0 L 8.757812 -9.324219 L 7.203125 -9.324219 L 7.203125 -2.132812 L 7.097656 -2.132812 L 2.777344 -9.324219 L 0.933594 -9.324219 Z M 0.933594 0 "/></g></g></g><g fill="rgb(92.549133%, 11.369324%, 15.289307%)" fill-opacity="1"><g transform="translate(129.5076, 272.84008)"><g><path d="M 3.320312 0 L 4.976562 0 L 4.976562 -7.941406 L 8.097656 -7.941406 L 8.097656 -9.324219 L 0.210938 -9.324219 L 0.210938 -7.941406 L 3.320312 -7.941406 Z M 3.320312 0 "/></g></g></g><g fill="rgb(92.549133%, 11.369324%, 15.289307%)" fill-opacity="1"><g transform="translate(138.944289, 272.84008)"><g><path d="M 0.933594 0 L 2.59375 0 L 2.59375 -4.160156 L 7.097656 -4.160156 L 7.097656 0 L 8.757812 0 L 8.757812 -9.324219 L 7.097656 -9.324219 L 7.097656 -5.503906 L 2.59375 -5.503906 L 2.59375 -9.324219 L 0.933594 -9.324219 Z M 0.933594 0 "/></g></g></g><g fill="rgb(92.549133%, 11.369324%, 15.289307%)" fill-opacity="1"><g transform="translate(149.775967, 272.84008)"><g><path d="M 4.832031 0.25 C 7.21875 0.25 8.824219 -1.332031 8.824219 -3.792969 L 8.824219 -9.324219 L 7.164062 -9.324219 L 7.164062 -3.84375 C 7.164062 -2.199219 6.253906 -1.132812 4.832031 -1.132812 C 3.425781 -1.132812 2.515625 -2.1875 2.515625 -3.84375 L 2.515625 -9.324219 L 0.84375 -9.324219 L 0.84375 -3.792969 C 0.84375 -1.332031 2.449219 0.25 4.832031 0.25 Z M 4.832031 0.25 "/></g></g></g><g fill="rgb(92.549133%, 11.369324%, 15.289307%)" fill-opacity="1"><g transform="translate(160.581323, 272.84008)"><g><path d="M 4.648438 0.25 C 7.058594 0.25 8.640625 -0.871094 8.640625 -2.621094 C 8.640625 -4.726562 6.613281 -5.042969 4.953125 -5.292969 C 3.636719 -5.492188 2.4375 -5.6875 2.4375 -6.796875 C 2.4375 -7.703125 3.238281 -8.351562 4.570312 -8.351562 C 5.953125 -8.351562 6.847656 -7.625 6.847656 -6.425781 L 8.375 -6.425781 C 8.363281 -8.324219 6.847656 -9.585938 4.503906 -9.585938 C 2.226562 -9.585938 0.765625 -8.429688 0.765625 -6.691406 C 0.765625 -4.542969 2.859375 -4.28125 4.503906 -4.042969 C 5.792969 -3.84375 6.980469 -3.660156 6.980469 -2.527344 C 6.980469 -1.59375 6.085938 -0.988281 4.714844 -0.988281 C 3.175781 -0.988281 2.226562 -1.765625 2.226562 -3.027344 L 0.660156 -3.015625 C 0.660156 -1.054688 2.238281 0.25 4.648438 0.25 Z M 4.648438 0.25 "/></g></g></g><g fill="rgb(92.549133%, 11.369324%, 15.289307%)" fill-opacity="1"><g transform="translate(171.018191, 272.84008)"><g><path d="M 0.949219 0 L 2.609375 0 L 2.609375 -9.324219 L 0.949219 -9.324219 Z M 0.949219 0 "/></g></g></g><g fill="rgb(92.549133%, 11.369324%, 15.289307%)" fill-opacity="1"><g transform="translate(175.717226, 272.84008)"><g><path d="M 0.199219 0 L 1.910156 0 L 2.609375 -1.9375 L 6.757812 -1.9375 L 7.453125 0 L 9.179688 0 L 5.914062 -9.324219 L 3.464844 -9.324219 Z M 2.964844 -3.175781 L 4.621094 -7.890625 L 4.742188 -7.890625 L 6.402344 -3.175781 Z M 2.964844 -3.175781 "/></g></g></g><g fill="rgb(92.549133%, 11.369324%, 15.289307%)" fill-opacity="1"><g transform="translate(186.219904, 272.84008)"><g><path d="M 4.648438 0.25 C 7.058594 0.25 8.640625 -0.871094 8.640625 -2.621094 C 8.640625 -4.726562 6.613281 -5.042969 4.953125 -5.292969 C 3.636719 -5.492188 2.4375 -5.6875 2.4375 -6.796875 C 2.4375 -7.703125 3.238281 -8.351562 4.570312 -8.351562 C 5.953125 -8.351562 6.847656 -7.625 6.847656 -6.425781 L 8.375 -6.425781 C 8.363281 -8.324219 6.847656 -9.585938 4.503906 -9.585938 C 2.226562 -9.585938 0.765625 -8.429688 0.765625 -6.691406 C 0.765625 -4.542969 2.859375 -4.28125 4.503906 -4.042969 C 5.792969 -3.84375 6.980469 -3.660156 6.980469 -2.527344 C 6.980469 -1.59375 6.085938 -0.988281 4.714844 -0.988281 C 3.175781 -0.988281 2.226562 -1.765625 2.226562 -3.027344 L 0.660156 -3.015625 C 0.660156 -1.054688 2.238281 0.25 4.648438 0.25 Z M 4.648438 0.25 "/></g></g></g><g fill="rgb(92.549133%, 11.369324%, 15.289307%)" fill-opacity="1"><g transform="translate(196.656777, 272.84008)"><g><path d="M 3.320312 0 L 4.976562 0 L 4.976562 -7.941406 L 8.097656 -7.941406 L 8.097656 -9.324219 L 0.210938 -9.324219 L 0.210938 -7.941406 L 3.320312 -7.941406 Z M 3.320312 0 "/></g></g></g><g fill="rgb(92.549133%, 11.369324%, 15.289307%)" fill-opacity="1"><g transform="translate(206.093472, 272.84008)"><g/></g></g><g fill="rgb(92.549133%, 11.369324%, 15.289307%)" fill-opacity="1"><g transform="translate(210.476662, 272.84008)"><g><path d="M 0.949219 0 L 2.609375 0 L 2.609375 -3.175781 L 4.808594 -3.175781 C 7.113281 -3.175781 8.429688 -4.425781 8.429688 -6.253906 C 8.441406 -8.074219 7.125 -9.324219 4.820312 -9.324219 L 0.949219 -9.324219 Z M 2.609375 -4.410156 L 2.609375 -8.085938 L 4.648438 -8.085938 C 6.03125 -8.085938 6.769531 -7.324219 6.769531 -6.253906 C 6.769531 -5.164062 6.03125 -4.410156 4.648438 -4.410156 Z M 2.609375 -4.410156 "/></g></g></g><g fill="rgb(92.549133%, 11.369324%, 15.289307%)" fill-opacity="1"><g transform="translate(220.505565, 272.84008)"><g><path d="M 0.949219 0 L 7.242188 0 L 7.242188 -1.433594 L 2.609375 -1.433594 L 2.609375 -9.324219 L 0.949219 -9.324219 Z M 0.949219 0 "/></g></g></g><g fill="rgb(92.549133%, 11.369324%, 15.289307%)" fill-opacity="1"><g transform="translate(229.244776, 272.84008)"><g><path d="M 0.199219 0 L 1.910156 0 L 2.609375 -1.9375 L 6.757812 -1.9375 L 7.453125 0 L 9.179688 0 L 5.914062 -9.324219 L 3.464844 -9.324219 Z M 2.964844 -3.175781 L 4.621094 -7.890625 L 4.742188 -7.890625 L 6.402344 -3.175781 Z M 2.964844 -3.175781 "/></g></g></g><g fill="rgb(92.549133%, 11.369324%, 15.289307%)" fill-opacity="1"><g transform="translate(239.747454, 272.84008)"><g><path d="M 3.320312 0 L 4.976562 0 L 4.976562 -7.941406 L 8.097656 -7.941406 L 8.097656 -9.324219 L 0.210938 -9.324219 L 0.210938 -7.941406 L 3.320312 -7.941406 Z M 3.320312 0 "/></g></g></g><g fill="rgb(92.549133%, 11.369324%, 15.289307%)" fill-opacity="1"><g transform="translate(249.184148, 272.84008)"><g><path d="M 0.949219 0 L 7.847656 0 L 7.847656 -1.34375 L 2.554688 -1.34375 L 2.554688 -4.214844 L 7.335938 -4.214844 L 7.335938 -5.347656 L 2.554688 -5.347656 L 2.554688 -7.996094 L 7.71875 -7.996094 L 7.71875 -9.324219 L 0.949219 -9.324219 Z M 0.949219 0 "/></g></g></g><g fill="rgb(92.549133%, 11.369324%, 15.289307%)" fill-opacity="1"><g transform="translate(258.686646, 272.84008)"><g><path d="M 0.949219 0 L 2.609375 0 L 2.609375 -3.964844 L 6.742188 -3.964844 L 6.742188 -5.242188 L 2.609375 -5.242188 L 2.609375 -7.890625 L 7.386719 -7.890625 L 7.386719 -9.324219 L 0.949219 -9.324219 Z M 0.949219 0 "/></g></g></g><g fill="rgb(92.549133%, 11.369324%, 15.289307%)" fill-opacity="1"><g transform="translate(267.623257, 272.84008)"><g><path d="M 5.664062 0.25 C 8.664062 0.25 10.761719 -1.726562 10.761719 -4.664062 C 10.761719 -7.597656 8.664062 -9.585938 5.664062 -9.585938 C 2.660156 -9.585938 0.566406 -7.597656 0.566406 -4.664062 C 0.566406 -1.726562 2.660156 0.25 5.664062 0.25 Z M 5.664062 -1.132812 C 3.660156 -1.132812 2.238281 -2.59375 2.238281 -4.664062 C 2.238281 -6.742188 3.660156 -8.191406 5.664062 -8.191406 C 7.679688 -8.191406 9.101562 -6.742188 9.101562 -4.664062 C 9.101562 -2.582031 7.679688 -1.132812 5.664062 -1.132812 Z M 5.664062 -1.132812 "/></g></g></g><g fill="rgb(92.549133%, 11.369324%, 15.289307%)" fill-opacity="1"><g transform="translate(280.099948, 272.84008)"><g><path d="M 0.949219 0 L 2.609375 0 L 2.609375 -3.570312 L 4.136719 -3.570312 L 7.019531 0 L 8.902344 0 L 5.769531 -3.6875 L 6.058594 -3.699219 C 7.691406 -3.832031 8.796875 -4.886719 8.796875 -6.414062 C 8.796875 -8.191406 7.414062 -9.324219 5.269531 -9.324219 L 0.949219 -9.324219 Z M 2.609375 -4.703125 L 2.609375 -8.085938 L 5.003906 -8.085938 C 6.28125 -8.085938 7.125 -7.46875 7.125 -6.402344 C 7.125 -5.359375 6.269531 -4.703125 5.003906 -4.703125 Z M 2.609375 -4.703125 "/></g></g></g><g fill="rgb(92.549133%, 11.369324%, 15.289307%)" fill-opacity="1"><g transform="translate(290.628947, 272.84008)"><g><path d="M 0.933594 0 L 2.542969 0 L 2.542969 -7.074219 L 2.660156 -7.074219 L 5.585938 0 L 6.941406 0 L 9.878906 -7.085938 L 9.984375 -7.085938 L 9.984375 0 L 11.589844 0 L 11.589844 -9.324219 L 9.3125 -9.324219 L 6.320312 -1.988281 L 6.214844 -1.988281 L 3.1875 -9.324219 L 0.933594 -9.324219 Z M 0.933594 0 "/></g></g></g></svg>