<svg xmlns="http://www.w3.org/2000/svg" xmlns:xlink="http://www.w3.org/1999/xlink" width="375" zoomAndPan="magnify" viewBox="0 0 375 374.999991" height="374.999991" preserveAspectRatio="xMidYMid meet" version="1.0"><defs><clipPath id="id1"><path d="M 55.527344 177 L 75 177 L 75 208 L 55.527344 208 Z M 55.527344 177 " clip-rule="nonzero"/></clipPath><clipPath id="id2"><path d="M 245 162 L 297.839844 162 L 297.839844 211 L 245 211 Z M 245 162 " clip-rule="nonzero"/></clipPath><clipPath id="id3"><path d="M 135 70.109375 L 217 70.109375 L 217 250.0625 L 135 250.0625 Z M 135 70.109375 " clip-rule="nonzero"/></clipPath><clipPath id="id4"><path d="M 20 149 L 61 149 L 61 196 L 20 196 Z M 20 149 " clip-rule="nonzero"/></clipPath><clipPath id="id5"><path d="M 17.539062 153.296875 L 55.945312 145.453125 L 68.066406 204.808594 L 29.664062 212.652344 Z M 17.539062 153.296875 " clip-rule="nonzero"/></clipPath><clipPath id="id6"><path d="M 17.539062 153.296875 L 55.945312 145.453125 L 68.066406 204.808594 L 29.664062 212.652344 Z M 17.539062 153.296875 " clip-rule="nonzero"/></clipPath><clipPath id="id7"><path d="M 39 198 L 51 198 L 51 210 L 39 210 Z M 39 198 " clip-rule="nonzero"/></clipPath><clipPath id="id8"><path d="M 17.539062 153.296875 L 55.945312 145.453125 L 68.066406 204.808594 L 29.664062 212.652344 Z M 17.539062 153.296875 " clip-rule="nonzero"/></clipPath><clipPath id="id9"><path d="M 17.539062 153.296875 L 55.945312 145.453125 L 68.066406 204.808594 L 29.664062 212.652344 Z M 17.539062 153.296875 " clip-rule="nonzero"/></clipPath><clipPath id="id10"><path d="M 300.136719 145.539062 L 350 145.539062 L 350 229.28125 L 300.136719 229.28125 Z M 300.136719 145.539062 " clip-rule="nonzero"/></clipPath></defs><path fill="rgb(92.549133%, 11.369324%, 15.289307%)" d="M 187.464844 18.179688 C 93.855469 18.179688 17.964844 94.066406 17.964844 187.679688 C 17.964844 281.292969 93.855469 357.179688 187.464844 357.179688 C 281.078125 357.179688 356.964844 281.292969 356.964844 187.679688 C 356.964844 94.066406 281.078125 18.179688 187.464844 18.179688 " fill-opacity="1" fill-rule="nonzero"/><g clip-path="url(#id1)"><path fill="rgb(0%, 0%, 0%)" d="M 72.949219 177.074219 L 74.972656 180.140625 C 67.261719 188.171875 60.699219 197.300781 55.527344 207.273438 C 59.855469 196.382812 65.753906 186.238281 72.949219 177.074219 " fill-opacity="1" fill-rule="nonzero"/></g><path fill="rgb(0%, 0%, 0%)" d="M 91.097656 166.152344 C 86.453125 169.484375 82.070312 173.160156 77.972656 177.132812 L 75.707031 173.699219 C 79.449219 169.269531 83.492188 165.085938 87.832031 161.210938 L 91.097656 166.152344 " fill-opacity="1" fill-rule="nonzero"/><path fill="rgb(0%, 0%, 0%)" d="M 110.9375 154.671875 C 105.199219 157.273438 99.710938 160.320312 94.523438 163.777344 L 91 158.445312 C 96.054688 154.207031 101.453125 150.332031 107.15625 146.875 L 110.9375 154.671875 " fill-opacity="1" fill-rule="nonzero"/><path fill="rgb(0%, 0%, 0%)" d="M 138.492188 146.136719 C 130.242188 147.589844 122.308594 149.925781 114.769531 153.015625 L 110.773438 144.769531 C 118.792969 140.253906 127.371094 136.539062 136.390625 133.753906 L 138.492188 146.136719 " fill-opacity="1" fill-rule="nonzero"/><path fill="rgb(0%, 0%, 0%)" d="M 176.328125 127.816406 L 175.511719 145.519531 C 170.089844 144.742188 164.550781 144.34375 158.921875 144.34375 C 153.382812 144.34375 147.933594 144.726562 142.605469 145.484375 L 140.421875 132.582031 C 151.722656 129.480469 163.667969 127.816406 176.019531 127.816406 L 176.328125 127.816406 " fill-opacity="1" fill-rule="nonzero"/><path fill="rgb(0%, 0%, 0%)" d="M 221.96875 135.890625 L 211.875 157.070312 C 201.882812 151.949219 191.054688 148.234375 179.644531 146.195312 L 180.492188 127.890625 C 195.058594 128.367188 209.019531 131.15625 221.96875 135.890625 " fill-opacity="1" fill-rule="nonzero"/><path fill="rgb(0%, 0%, 0%)" d="M 262.332031 159.554688 L 242.316406 179.574219 C 234.472656 171.5 225.460938 164.570312 215.558594 159.039062 L 225.878906 137.386719 C 239.34375 142.785156 251.644531 150.324219 262.332031 159.554688 " fill-opacity="1" fill-rule="nonzero"/><g clip-path="url(#id2)"><path fill="rgb(0%, 0%, 0%)" d="M 297.839844 210.730469 L 264.039062 210.730469 C 259.125 200.433594 252.753906 190.96875 245.175781 182.613281 L 265.445312 162.328125 C 279.914062 175.65625 291.125 192.195312 297.839844 210.730469 " fill-opacity="1" fill-rule="nonzero"/></g><path fill="rgb(0%, 0%, 0%)" d="M 169.597656 157.117188 C 169.597656 157.117188 169.082031 156.996094 168.113281 156.769531 C 167.628906 156.65625 167.03125 156.515625 166.332031 156.351562 C 165.65625 156.222656 164.878906 156.070312 164.011719 155.902344 C 163.152344 155.722656 162.164062 155.578125 161.089844 155.414062 C 160.019531 155.238281 158.855469 155.09375 157.605469 154.964844 C 155.113281 154.664062 152.277344 154.507812 149.175781 154.417969 C 146.078125 154.40625 142.707031 154.4375 139.15625 154.773438 C 135.609375 155.101562 131.863281 155.558594 128.042969 156.351562 C 124.21875 157.128906 120.296875 158.109375 116.382812 159.363281 C 115.402344 159.675781 114.433594 160.027344 113.449219 160.359375 C 112.976562 160.527344 112.433594 160.695312 112.015625 160.867188 L 110.542969 161.445312 C 109.558594 161.832031 108.574219 162.214844 107.585938 162.605469 L 104.742188 163.871094 C 102.828125 164.675781 100.980469 165.675781 99.113281 166.609375 C 98.171875 167.058594 97.289062 167.613281 96.378906 168.113281 C 95.480469 168.636719 94.5625 169.121094 93.6875 169.664062 C 92.8125 170.214844 91.945312 170.765625 91.082031 171.3125 L 89.789062 172.136719 L 88.542969 173.011719 C 87.710938 173.59375 86.886719 174.171875 86.070312 174.746094 C 85.269531 175.34375 84.496094 175.964844 83.714844 176.566406 C 80.582031 178.964844 77.78125 181.554688 75.171875 184.066406 C 73.929688 185.378906 72.683594 186.628906 71.550781 187.898438 C 70.453125 189.203125 69.324219 190.40625 68.363281 191.667969 C 66.382812 194.136719 64.71875 196.519531 63.304688 198.675781 C 62.625 199.773438 61.992188 200.796875 61.40625 201.746094 C 60.851562 202.714844 60.378906 203.625 59.929688 204.433594 C 59.007812 206.046875 58.460938 207.398438 58.015625 208.289062 C 57.589844 209.1875 57.363281 209.667969 57.363281 209.667969 C 57.363281 209.667969 57.570312 209.179688 57.957031 208.261719 C 58.363281 207.355469 58.851562 205.972656 59.707031 204.324219 C 60.121094 203.488281 60.558594 202.558594 61.070312 201.558594 C 61.621094 200.582031 62.214844 199.523438 62.847656 198.390625 C 64.171875 196.164062 65.75 193.695312 67.640625 191.113281 C 68.554688 189.800781 69.644531 188.535156 70.695312 187.167969 C 71.789062 185.832031 72.992188 184.511719 74.199219 183.128906 C 76.730469 180.472656 79.464844 177.714844 82.542969 175.136719 C 83.3125 174.492188 84.078125 173.828125 84.867188 173.183594 C 85.675781 172.5625 86.488281 171.933594 87.308594 171.304688 L 88.542969 170.359375 L 89.824219 169.460938 C 90.683594 168.863281 91.546875 168.265625 92.414062 167.660156 C 93.289062 167.070312 94.203125 166.53125 95.097656 165.960938 C 96.007812 165.40625 96.890625 164.800781 97.832031 164.296875 C 99.703125 163.257812 101.546875 162.160156 103.507812 161.230469 L 106.414062 159.785156 C 107.382812 159.355469 108.351562 158.929688 109.316406 158.503906 L 110.761719 157.863281 C 111.3125 157.613281 111.773438 157.453125 112.28125 157.25 C 113.273438 156.863281 114.257812 156.457031 115.253906 156.09375 C 119.234375 154.625 123.25 153.4375 127.179688 152.460938 C 131.113281 151.46875 134.988281 150.820312 138.675781 150.320312 C 142.371094 149.8125 145.898438 149.621094 149.15625 149.496094 C 152.417969 149.453125 155.414062 149.488281 158.066406 149.691406 C 159.394531 149.773438 160.636719 149.871094 161.777344 150.011719 C 162.925781 150.136719 163.972656 150.242188 164.941406 150.402344 C 165.902344 150.546875 166.757812 150.675781 167.503906 150.789062 C 168.210938 150.921875 168.816406 151.035156 169.300781 151.128906 C 170.28125 151.3125 170.800781 151.410156 170.800781 151.410156 L 169.597656 157.117188 " fill-opacity="1" fill-rule="nonzero"/><g clip-path="url(#id3)"><path fill="rgb(0%, 0%, 0%)" d="M 162.410156 219.664062 L 216.605469 70.117188 L 150.632812 216.214844 C 141.953125 216.953125 135.140625 224.222656 135.140625 233.097656 C 135.140625 242.460938 142.730469 250.054688 152.09375 250.054688 C 161.457031 250.054688 169.046875 242.460938 169.046875 233.097656 C 169.046875 227.621094 166.441406 222.761719 162.410156 219.664062 " fill-opacity="1" fill-rule="nonzero"/></g><path fill="rgb(0%, 0%, 0%)" d="M 238.644531 217.125 L 236.023438 212.734375 L 248.894531 205.042969 L 251.515625 209.433594 L 238.644531 217.125 " fill-opacity="1" fill-rule="nonzero"/><path fill="rgb(0%, 0%, 0%)" d="M 225.621094 198.855469 L 222.144531 195.109375 L 233.132812 184.90625 L 236.609375 188.65625 L 225.621094 198.855469 " fill-opacity="1" fill-rule="nonzero"/><path fill="rgb(0%, 0%, 0%)" d="M 209.082031 183.695312 L 204.902344 180.75 L 213.535156 168.488281 L 217.710938 171.433594 L 209.082031 183.695312 " fill-opacity="1" fill-rule="nonzero"/><path fill="rgb(0%, 0%, 0%)" d="M 189.757812 172.300781 L 185.054688 170.292969 L 190.949219 156.503906 L 195.648438 158.515625 L 189.757812 172.300781 " fill-opacity="1" fill-rule="nonzero"/><g clip-path="url(#id4)"><g clip-path="url(#id5)"><g clip-path="url(#id6)"><path fill="rgb(0%, 0%, 0%)" d="M 43.183594 194.902344 C 40.152344 195.519531 37.203125 193.605469 36.59375 190.625 L 35.125 183.429688 C 34.515625 180.449219 36.480469 177.535156 39.511719 176.914062 C 40.609375 176.679688 50.113281 172.875 48.644531 165.679688 C 47.910156 162.085938 43.519531 159.234375 38.03125 160.355469 C 33.570312 161.265625 31.453125 165.445312 31.820312 167.246094 C 32.429688 170.222656 30.464844 173.140625 27.4375 173.761719 C 24.40625 174.378906 21.457031 172.464844 20.847656 169.484375 C 19.058594 160.710938 25.917969 151.585938 35.828125 149.5625 C 50.457031 146.574219 58.140625 156.214844 59.984375 165.238281 C 61.507812 172.695312 58.507812 179.242188 51.535156 183.675781 C 50.015625 184.644531 48.476562 185.402344 47.078125 185.988281 L 47.566406 188.386719 C 48.175781 191.363281 46.214844 194.28125 43.183594 194.902344 Z M 43.183594 194.902344 " fill-opacity="1" fill-rule="nonzero"/></g></g></g><g clip-path="url(#id7)"><g clip-path="url(#id8)"><g clip-path="url(#id9)"><path fill="rgb(0%, 0%, 0%)" d="M 50.507812 202.773438 C 50.578125 203.128906 50.613281 203.484375 50.617188 203.847656 C 50.617188 204.210938 50.582031 204.566406 50.511719 204.921875 C 50.4375 205.277344 50.332031 205.625 50.195312 205.960938 C 50.054688 206.296875 49.882812 206.613281 49.679688 206.917969 C 49.476562 207.21875 49.242188 207.5 48.984375 207.757812 C 48.726562 208.015625 48.441406 208.246094 48.136719 208.449219 C 47.832031 208.652344 47.511719 208.824219 47.171875 208.96875 C 46.832031 209.109375 46.480469 209.214844 46.121094 209.289062 C 45.761719 209.363281 45.398438 209.402344 45.03125 209.40625 C 44.664062 209.40625 44.300781 209.375 43.9375 209.308594 C 43.578125 209.238281 43.226562 209.136719 42.886719 209.003906 C 42.550781 208.867188 42.226562 208.699219 41.921875 208.5 C 41.613281 208.304688 41.332031 208.078125 41.070312 207.824219 C 40.8125 207.570312 40.578125 207.292969 40.375 206.992188 C 40.167969 206.695312 39.996094 206.378906 39.855469 206.046875 C 39.714844 205.710938 39.605469 205.367188 39.535156 205.015625 C 39.460938 204.660156 39.425781 204.300781 39.425781 203.941406 C 39.425781 203.578125 39.460938 203.21875 39.53125 202.863281 C 39.601562 202.507812 39.707031 202.164062 39.847656 201.828125 C 39.988281 201.492188 40.160156 201.171875 40.363281 200.871094 C 40.566406 200.566406 40.796875 200.289062 41.054688 200.03125 C 41.316406 199.773438 41.597656 199.542969 41.902344 199.335938 C 42.207031 199.132812 42.53125 198.960938 42.867188 198.820312 C 43.207031 198.679688 43.558594 198.570312 43.917969 198.5 C 44.277344 198.425781 44.640625 198.386719 45.007812 198.382812 C 45.375 198.378906 45.742188 198.414062 46.101562 198.480469 C 46.460938 198.546875 46.8125 198.648438 47.152344 198.785156 C 47.492188 198.921875 47.8125 199.085938 48.121094 199.285156 C 48.425781 199.484375 48.707031 199.710938 48.96875 199.964844 C 49.230469 200.21875 49.460938 200.496094 49.667969 200.792969 C 49.871094 201.09375 50.042969 201.410156 50.183594 201.742188 C 50.328125 202.074219 50.433594 202.417969 50.507812 202.773438 Z M 50.507812 202.773438 " fill-opacity="1" fill-rule="nonzero"/></g></g></g><g clip-path="url(#id10)"><path fill="rgb(0%, 0%, 0%)" d="M 302.660156 188.003906 C 301.394531 183.285156 300.449219 179.257812 301.769531 174.382812 C 302.992188 169.859375 306.609375 166.261719 310.703125 164.113281 C 320.222656 159.128906 332.195312 162.300781 337.917969 171.335938 C 340.382812 175.222656 341.699219 180.128906 340.472656 184.65625 C 339.15625 189.527344 336.300781 192.550781 332.824219 196.007812 C 331.804688 197.019531 330.785156 198.035156 329.839844 199.117188 C 329.40625 199.621094 328.941406 200.105469 328.484375 200.59375 C 327.953125 201.160156 327.421875 201.726562 326.902344 202.304688 C 326.160156 203.121094 324.636719 204.773438 324.230469 205.765625 C 323.992188 206.339844 323.800781 206.929688 323.609375 207.519531 C 322.660156 210.402344 321.527344 213.890625 317.671875 212.871094 L 307.269531 210.109375 C 303.414062 209.085938 304.195312 205.5 304.828125 202.535156 C 304.957031 201.929688 305.089844 201.324219 305.175781 200.710938 C 305.324219 199.648438 304.839844 197.464844 304.609375 196.386719 C 304.449219 195.632812 304.277344 194.878906 304.101562 194.121094 C 303.953125 193.476562 303.792969 192.824219 303.671875 192.175781 C 303.402344 190.765625 303.03125 189.386719 302.660156 188.003906 Z M 325.347656 158.671875 L 328.648438 146.476562 C 329.535156 146.675781 330.417969 146.910156 331.285156 147.175781 L 327.984375 159.375 C 327.121094 159.09375 326.238281 158.859375 325.347656 158.671875 Z M 305.910156 148.425781 C 306.757812 148.070312 307.609375 147.75 308.46875 147.464844 L 311.777344 159.6875 C 310.925781 160.007812 310.082031 160.378906 309.257812 160.796875 Z M 317.0625 145.675781 C 317.972656 145.597656 318.882812 145.550781 319.789062 145.539062 L 319.789062 158.160156 C 318.882812 158.179688 317.96875 158.25 317.0625 158.367188 Z M 339.429688 150.75 C 340.210938 151.210938 340.972656 151.703125 341.722656 152.21875 L 335.3125 163.210938 C 334.585938 162.65625 333.832031 162.148438 333.054688 161.679688 Z M 348.261719 158.019531 C 348.859375 158.695312 349.4375 159.398438 349.992188 160.125 L 340.847656 169.179688 C 340.34375 168.40625 339.800781 167.671875 339.222656 166.972656 Z M 307.722656 229.011719 C 306.820312 228.757812 306.125 228.433594 305.71875 227.742188 C 305.347656 227.101562 304.679688 226.578125 304.183594 226.015625 C 304.070312 225.886719 304.054688 225.710938 304.144531 225.566406 C 304.234375 225.417969 304.40625 225.355469 304.570312 225.398438 L 312.289062 227.445312 C 312.453125 227.488281 312.566406 227.632812 312.574219 227.800781 C 312.578125 227.972656 312.476562 228.117188 312.3125 228.171875 C 311.597656 228.414062 310.753906 228.535156 310.109375 228.90625 C 309.410156 229.308594 308.648438 229.238281 307.734375 229.015625 C 307.730469 229.015625 307.726562 229.011719 307.722656 229.011719 Z M 303.039062 220.703125 L 315.988281 224.140625 C 317.191406 224.460938 317.992188 225.40625 317.765625 226.246094 L 317.730469 226.371094 C 317.503906 227.207031 316.332031 227.628906 315.128906 227.308594 L 302.179688 223.875 C 300.976562 223.554688 300.175781 222.605469 300.402344 221.773438 L 300.433594 221.644531 C 300.660156 220.808594 301.832031 220.386719 303.039062 220.703125 Z M 304.136719 216.648438 L 317.082031 220.082031 C 318.289062 220.402344 319.089844 221.351562 318.863281 222.1875 L 318.828125 222.3125 C 318.601562 223.148438 317.429688 223.570312 316.226562 223.253906 L 303.277344 219.816406 C 302.074219 219.496094 301.273438 218.550781 301.5 217.714844 L 301.53125 217.589844 C 301.757812 216.753906 302.929688 216.328125 304.136719 216.648438 Z M 305.257812 212.492188 L 318.207031 215.929688 C 319.410156 216.25 320.210938 217.195312 319.984375 218.03125 L 319.953125 218.160156 C 319.726562 218.996094 318.554688 219.417969 317.347656 219.097656 L 304.402344 215.664062 C 303.199219 215.34375 302.394531 214.394531 302.625 213.5625 L 302.65625 213.4375 C 302.882812 212.597656 304.054688 212.175781 305.257812 212.492188 Z M 307.964844 206.550781 C 308.046875 206.582031 308.148438 206.613281 308.210938 206.628906 L 318.613281 209.386719 C 318.675781 209.402344 318.777344 209.429688 318.867188 209.4375 C 319.34375 208.898438 319.949219 207 320.144531 206.402344 C 320.367188 205.730469 320.589844 205.066406 320.855469 204.410156 C 321.503906 202.828125 323.027344 201.175781 324.191406 199.890625 C 324.726562 199.304688 325.269531 198.722656 325.816406 198.140625 C 326.242188 197.6875 326.675781 197.234375 327.082031 196.765625 C 328.085938 195.613281 329.160156 194.539062 330.246094 193.460938 C 333.214844 190.511719 335.835938 187.859375 336.957031 183.722656 C 337.910156 180.191406 336.746094 176.269531 334.832031 173.253906 C 330.125 165.816406 320.242188 163.195312 312.40625 167.300781 C 309.226562 168.96875 306.238281 171.785156 305.285156 175.316406 C 304.164062 179.457031 305.09375 183.046875 306.175781 187.078125 C 306.570312 188.542969 306.960938 190.007812 307.25 191.503906 C 307.363281 192.113281 307.511719 192.714844 307.648438 193.320312 C 307.828125 194.09375 308.007812 194.867188 308.171875 195.640625 C 308.53125 197.328125 309.019531 199.511719 308.78125 201.207031 C 308.683594 201.90625 308.535156 202.59375 308.390625 203.28125 C 308.261719 203.898438 307.824219 205.84375 307.964844 206.550781 Z M 307.964844 206.550781 " fill-opacity="1" fill-rule="evenodd"/></g></svg>